<svg width="18" height="23" viewBox="0 0 18 23" fill="none" xmlns="http://www.w3.org/2000/svg">
<path d="M0.333374 22.9999V3.07695C0.333374 2.40344 0.566707 1.83335 1.03337 1.36669C1.50004 0.90002 2.07013 0.666687 2.74364 0.666687H15.2564C15.9299 0.666687 16.5 0.90002 16.9666 1.36669C17.4333 1.83335 17.6666 2.40344 17.6666 3.07695V22.9999L9.00001 19.282L0.333374 22.9999ZM2.33334 19.9333L9.00001 17.0667L15.6667 19.9333V3.07695C15.6667 2.97438 15.6239 2.88034 15.5385 2.79485C15.453 2.70939 15.359 2.66665 15.2564 2.66665H2.74364C2.64106 2.66665 2.54703 2.70939 2.46154 2.79485C2.37607 2.88034 2.33334 2.97438 2.33334 3.07695V19.9333Z" fill="black"/>
</svg>
